<?xml version="1.0" standalone="no"?><!DOCTYPE svg PUBLIC "-//W3C//DTD SVG 1.1//EN" "http://www.w3.org/Graphics/SVG/1.1/DTD/svg11.dtd"><svg t="1622366983872" class="icon" viewBox="0 0 1024 1024" version="1.1" xmlns="http://www.w3.org/2000/svg" p-id="5740" xmlns:xlink="http://www.w3.org/1999/xlink" width="200" height="200"><defs><style type="text/css"></style></defs><path d="M908.068571 104.96C833.462857 30.354286 728.137143 0.731429 626.102857 23.771429c-24.137143 5.485714-38.4 28.525714-32.914286 52.662857 5.485714 24.137143 28.525714 38.4 52.662858 32.914285 72.411429-16.457143 147.017143 4.388571 199.68 57.051429 110.811429 110.811429 110.811429 290.742857 0 400.457143L512 901.485714 177.371429 567.954286c-109.714286-110.811429-109.714286-290.742857 0-400.457143 83.382857-83.382857 219.428571-83.382857 302.811428 0l74.605714 74.605714c8.777143 8.777143 83.382857 82.285714 161.28 82.285714h5.485715c32.914286-1.097143 61.44-16.457143 83.382857-42.788571 15.36-18.651429 12.068571-46.08-6.582857-61.44-18.651429-15.36-46.08-12.068571-61.44 6.582857-6.582857 8.777143-13.165714 9.874286-18.651429 10.971429-28.525714 2.194286-75.702857-31.817143-99.84-57.051429L543.817143 106.057143c-117.394286-117.394286-309.394286-117.394286-427.885714 0-144.822857 144.822857-144.822857 379.611429 0 524.434286L481.28 994.742857c8.777143 8.777143 19.748571 13.165714 30.72 13.165714 10.971429 0 21.942857-4.388571 30.72-13.165714l365.348571-365.348571c70.217143-70.217143 108.617143-163.474286 108.617143-262.217143s-38.4-192-108.617143-262.217143z" fill="#ffffff" p-id="5741"></path><path d="M467.858286 358.144c22.363429-22.363429 60.123429-7.643429 62.317714 23.04L530.285714 384v185.965714l102.144-102.107428a36.571429 36.571429 0 0 1 22.637715-10.569143L658.285714 457.142857h146.285715a36.571429 36.571429 0 0 1 2.742857 73.051429L804.571429 530.285714h-131.145143l-153.856 153.856c-22.363429 22.363429-60.123429 7.643429-62.317715-23.04L457.142857 658.285714V472.283429l-47.286857 47.286857a36.571429 36.571429 0 0 1-22.637714 10.569143L384 530.285714h-164.571429a36.571429 36.571429 0 0 1-2.742857-73.051428L219.428571 457.142857h149.394286l99.035429-98.998857z" fill="#ffffff" p-id="5742"></path></svg>